<?xml version="1.0" encoding="UTF-8" standalone="no"?>
<!-- Created with Inkscape (http://www.inkscape.org/) -->

<svg
   xmlns:dc="http://purl.org/dc/elements/1.1/"
   xmlns:cc="http://creativecommons.org/ns#"
   xmlns:rdf="http://www.w3.org/1999/02/22-rdf-syntax-ns#"
   xmlns:svg="http://www.w3.org/2000/svg"
   xmlns="http://www.w3.org/2000/svg"
   xmlns:sodipodi="http://sodipodi.sourceforge.net/DTD/sodipodi-0.dtd"
   xmlns:inkscape="http://www.inkscape.org/namespaces/inkscape"
   version="1.1"
   id="svg3680"
   width="550"
   height="200"
   viewBox="0 0 550 200"
   sodipodi:docname="arrow_funky.svg"
   inkscape:version="0.92.1 r15371">
  <metadata
     id="metadata3686">
    <rdf:RDF>
      <cc:Work
         rdf:about="">
        <dc:format>image/svg+xml</dc:format>
        <dc:type
           rdf:resource="http://purl.org/dc/dcmitype/StillImage" />
        <dc:title></dc:title>
      </cc:Work>
    </rdf:RDF>
  </metadata>
  <defs
     id="defs3684" />
  <sodipodi:namedview
     pagecolor="#ffffff"
     bordercolor="#666666"
     borderopacity="1"
     objecttolerance="10"
     gridtolerance="10"
     guidetolerance="10"
     inkscape:pageopacity="0"
     inkscape:pageshadow="2"
     inkscape:window-width="1920"
     inkscape:window-height="1017"
     id="namedview3682"
     showgrid="false"
     inkscape:zoom="1.134585"
     inkscape:cx="36.998785"
     inkscape:cy="145.90657"
     inkscape:window-x="-8"
     inkscape:window-y="-8"
     inkscape:window-maximized="1"
     inkscape:current-layer="svg3680" />
  <path
     style="fill:#c3d69b;fill-opacity:1;stroke-width:4.35291624"
     d="m 300.14945,9.078077 c -0.47295,0.054024 -0.8476,0.1771054 -1.12462,0.3637416 -2.21619,1.4907044 -4.03399,12.6949864 -4.03399,24.9051164 v 22.199979 l -21.90576,1.374775 -21.90575,1.374712 v 43.140519 43.14052 l 21.90575,1.37478 21.90576,1.36587 v 21.71217 c 0,11.94122 1.24908,23.08043 2.77899,24.74548 1.52988,1.66509 4.44931,3.02444 6.48693,3.02444 7.6394,0 144.92223,-88.73075 143.71574,-92.88872 -1.24467,-4.2898 -98.58564,-71.432692 -129.12818,-89.065996 -7.59895,-4.387173 -15.38435,-7.1456123 -18.69487,-6.7672982 z m 20.15363,26.137981 c 6.20308,0.623766 16.413,9.815198 16.413,16.523592 0,4.407823 2.2499,10.466517 5.00377,13.463649 2.7537,2.997123 4.06559,5.445782 2.90933,5.445782 -4.43697,0 -30.16513,-31.792237 -27.80594,-34.359822 0.83016,-0.903499 2.04833,-1.217152 3.47984,-1.073201 z M 167.49254,54.249654 c -13.37323,-0.272918 -14.3675,6.735858 -14.3675,45.641661 0,23.043795 1.33662,43.362395 2.97454,45.145005 1.63789,1.78266 10.55666,2.63112 19.81949,1.8892 l 16.84494,-1.34817 1.19797,-44.27579 c 0.90373,-33.5057 -0.11141,-44.413611 -4.17252,-44.852277 -2.95173,-0.31879 -10.05487,-1.084696 -15.77736,-1.702917 -2.44893,-0.264749 -4.6091,-0.4577 -6.51956,-0.496712 z m -62.35153,0.505566 -1.20611,42.759145 c -0.78719,27.843565 0.40724,43.856245 3.4309,45.890015 3.84933,2.58907 19.35833,2.77553 34.43964,0.41683 1.80419,-0.28218 2.7431,-20.43852 2.08626,-44.790205 L 142.69372,54.75522 h -18.77635 z m 111.49275,1.011123 c -4.99818,0.150767 -8.74126,1.3359 -10.73281,3.50336 -5.38923,5.865335 -9.2905,76.118307 -4.67781,84.241087 1.49997,2.64142 11.47373,4.18444 22.16652,3.43243 l 19.44463,-1.36587 V 102.51666 59.447081 l -15.95664,-2.820427 c -3.79608,-0.671542 -7.24497,-0.950776 -10.24389,-0.860311 z m 138.26375,2.61643 c 0.65171,-0.07142 2.03318,0.39803 4.18071,1.29494 3.76691,1.573184 6.84552,4.687661 6.84552,6.91807 0,5.839683 -2.41756,5.015108 -8.42653,-2.864803 -2.75592,-3.613999 -3.68589,-5.229221 -2.5997,-5.348207 z m -230.98014,7.725204 c 2.29487,0 4.17252,6.130491 4.17252,13.62332 0,14.108585 -0.85206,15.729308 -5.56606,10.598902 -4.36805,-4.753908 -3.24751,-24.222222 1.39354,-24.222222 z m 146.16058,4.541104 h 17.9288 c 15.29696,0 19.3678,2.108664 27.70819,14.386094 l 9.77934,14.394946 -15.36991,-12.754112 c -17.68009,-14.676489 -23.13109,-12.97521 -12.90057,4.017793 9.31679,15.475278 7.17353,14.677228 -11.55597,-4.274997 z m -98.46992,3.609814 c 0.32378,-0.190086 0.70344,0.498388 1.10017,2.155259 1.05814,4.418359 0.98813,10.548858 -0.15481,13.623319 -1.14294,3.074466 -2.0084,-0.542796 -1.92329,-8.035617 0.0531,-4.683023 0.43821,-7.426129 0.97797,-7.742961 z m 99.65159,14.758606 c 2.11105,0.476177 8.99316,8.998067 16.6086,20.763169 8.96029,13.84278 13.48501,24.3694 10.43131,24.27539 -6.07194,-0.18668 -29.78498,-38.562399 -27.64298,-44.736986 0.0952,-0.274232 0.30127,-0.369595 0.60307,-0.301573 z m 80.76115,6.607664 14.45712,14.758605 c 17.36509,17.73502 27.24249,19.98505 19.94175,4.54111 -3.98609,-8.43215 -3.86092,-9.22562 0.69272,-4.54111 7.02124,7.22322 17.89533,7.50885 13.83776,0.36365 -2.06944,-3.64423 -0.67424,-4.33271 4.4333,-2.19962 5.94247,2.48177 7.004,1.27006 5.26456,-5.96906 -1.89195,-7.874005 -1.07547,-8.425022 6.20175,-4.186307 4.61089,2.685657 6.77571,6.584427 4.80817,8.665337 -1.96752,2.08096 -26.74856,18.24344 -55.07407,35.91199 -49.29044,30.74583 -66.30098,39.50462 -48.88858,25.17122 4.45467,-3.66699 9.84294,-6.66975 11.97156,-6.66975 2.12865,0 -1.38937,-7.49656 -7.81535,-16.6655 -11.81383,-16.85941 -7.54927,-16.88625 9.63265,-0.0532 13.47236,13.19878 16.82407,5.57938 5.15047,-11.71642 l -9.92606,-14.70541 15.158,12.48805 c 16.87435,13.90283 21.86264,15.568 18.55634,6.1908 -1.59729,-4.53016 0.21488,-5.60082 6.46252,-3.82266 9.42319,2.68189 9.11927,1.5567 -6.51143,-23.9384 z M 125.44129,108.5478 c 0.3797,0.0626 0.82888,0.76132 1.32836,2.11979 1.20554,3.27808 1.05241,7.19184 -0.33421,8.70085 -1.38652,1.50897 -2.37332,-1.17315 -2.19225,-5.96021 0.12518,-3.30637 0.56555,-4.96465 1.19798,-4.86043 z m 95.96805,0 c 0.37971,0.0626 0.82888,0.76132 1.32837,2.11979 1.20553,3.27808 1.0524,7.19184 -0.33421,8.70085 -1.38654,1.50897 -2.37334,-1.17315 -2.19226,-5.96021 0.12518,-3.30637 0.56555,-4.96465 1.19798,-4.86043 z"
     id="path4177"
     inkscape:connector-curvature="0" />
</svg>
